<svg width="47" height="47" viewBox="0 0 47 47" fill="none" xmlns="http://www.w3.org/2000/svg">
<circle cx="23.5" cy="23.5" r="23.5" fill="#D9D9D9"/>
<path d="M21.474 27L30.655 30.284C30.8093 30.3394 30.974 30.3597 31.137 30.3433C31.3001 30.3269 31.4575 30.2743 31.5976 30.1893C31.7378 30.1042 31.8571 29.989 31.947 29.8519C32.0369 29.7148 32.0949 29.5594 32.117 29.397L33.99 15.239C34.104 14.377 33.211 13.734 32.423 14.109L14.624 22.605C13.744 23.025 13.81 24.295 14.73 24.622L17.17 25.49L18.5 25.957M25 28.26L23.01 31.586C22.36 32.394 21.051 31.937 21.051 30.903V28.24C21.0511 27.7375 21.2403 27.2533 21.581 26.884L25.452 22.684" stroke="#686767" stroke-width="2" stroke-linecap="round" stroke-linejoin="round"/>
</svg>
